
<svg version="1.1" id="Layer_1" xmlns="http://www.w3.org/2000/svg" xmlns:xlink="http://www.w3.org/1999/xlink" x="0px" y="0px"
	 width="100%" viewBox="0 0 494 200" enable-background="new 0 0 494 200" xml:space="preserve">
<path fill="#FFFFFF" opacity="1.000000" stroke="none" 
	d="
M471.000000,201.000000 
	C314.000031,201.000000 157.500061,201.000000 1.000063,201.000000 
	C1.000042,134.333374 1.000042,67.666748 1.000021,1.000090 
	C165.666595,1.000060 330.333191,1.000060 494.999817,1.000030 
	C494.999878,67.666588 494.999878,134.333176 494.999939,200.999878 
	C487.166656,201.000000 479.333344,201.000000 471.000000,201.000000 
M301.980042,107.514816 
	C301.980103,105.348495 301.978394,103.182175 301.980652,101.015854 
	C301.987793,94.136024 304.342346,90.095322 308.235077,90.279396 
	C312.012726,90.458023 313.992004,94.122925 313.994476,100.955353 
	C313.996948,107.874939 313.995026,114.794533 313.995026,121.558731 
	C318.417511,121.558731 321.974243,121.558731 325.892609,121.558731 
	C325.892609,113.471748 325.746094,105.821037 325.985748,98.182426 
	C326.053833,96.012924 326.733521,93.426315 328.096252,91.880264 
	C329.077271,90.767235 332.263000,90.172981 333.382721,90.935989 
	C335.121704,92.120972 336.885437,94.612373 336.982269,96.629486 
	C337.378784,104.889481 337.147797,113.179588 337.147797,121.592102 
	C341.732605,121.592102 345.598389,121.592102 349.888641,121.592102 
	C349.888641,119.210403 349.894196,117.238480 349.887634,115.266594 
	C349.863678,108.102020 350.258118,100.902901 349.675720,93.783821 
	C349.209106,88.080811 347.461731,82.739395 340.756409,80.739616 
	C333.947845,78.709053 328.815826,81.312752 324.164276,85.767807 
	C316.173920,78.110481 311.234100,78.004646 301.286438,85.378067 
	C301.840027,78.829552 297.248322,80.306206 293.626526,80.226364 
	C288.913483,80.122475 290.069061,83.633171 290.022247,86.252014 
	C289.929932,91.416260 289.995026,96.583336 289.995026,101.749237 
	C289.995026,108.352058 289.995026,114.954872 289.995026,121.683105 
	C294.284546,121.683105 297.856476,121.683105 301.979980,121.683105 
	C301.979980,117.085976 301.979980,112.795296 301.980042,107.514816 
M137.505478,122.005112 
	C141.833176,121.994446 146.171494,122.174789 150.486450,121.935020 
	C160.797150,121.362083 167.644958,114.141258 165.672653,104.589149 
	C164.752823,100.134354 160.818954,96.301880 158.150467,92.025848 
	C162.494370,89.567596 164.931412,84.955177 163.803650,78.859154 
	C162.890686,73.924133 160.002441,70.371239 155.132919,68.800735 
	C144.917999,65.506241 134.520340,67.577461 124.241013,67.116486 
	C124.241013,85.810104 124.241013,103.697258 124.241013,122.005119 
	C128.577438,122.005119 132.543671,122.005119 137.505478,122.005112 
M378.294586,96.824577 
	C377.211090,100.640106 376.127563,104.455635 374.702942,109.472473 
	C372.579620,102.156441 370.894897,96.263786 369.158112,90.386505 
	C366.032288,79.808472 366.019135,79.811630 354.969360,81.170753 
	C354.815033,81.189735 354.673920,81.316010 354.187164,81.567856 
	C354.635071,83.048485 355.055573,84.616798 355.581635,86.148872 
	C359.409851,97.298096 363.295868,108.427628 367.086639,119.589508 
	C368.960876,125.108208 367.120178,127.628258 361.197235,127.967949 
	C360.255432,128.021957 359.321136,128.207443 358.255920,128.349091 
	C358.255920,131.281799 358.255920,133.877014 358.255920,136.385284 
	C369.149353,140.025848 377.662781,133.721680 380.268799,125.623314 
	C383.827576,114.564201 388.009674,103.706627 391.852539,92.737427 
	C393.132507,89.083801 394.190948,85.352554 395.379425,81.565094 
	C383.843170,79.603287 383.063782,80.059395 380.301544,89.830826 
	C379.714691,91.906754 379.176331,93.996399 378.294586,96.824577 
M260.732300,90.063606 
	C267.609467,87.931190 270.626495,90.152031 269.526825,97.119041 
	C267.471191,97.119041 265.319733,96.996613 263.188568,97.152115 
	C260.874329,97.320984 258.564758,97.668930 256.278015,98.077759 
	C248.942444,99.389183 244.668976,104.428825 245.152618,111.102036 
	C245.661652,118.125435 250.627884,123.046814 258.154755,122.767769 
	C262.379089,122.611160 266.542023,120.796806 270.818817,119.707390 
	C271.671875,122.449677 274.379669,123.079216 281.981201,121.226128 
	C281.981201,111.475380 282.532532,101.617638 281.674988,91.884003 
	C281.384247,88.583588 278.198029,84.458160 275.176727,82.699440 
	C268.537781,78.834862 261.040100,78.989822 254.073059,82.430893 
	C249.804672,84.539101 246.747681,87.904572 247.091858,93.637161 
	C251.922592,93.191154 256.902954,95.812828 260.732300,90.063606 
M170.570084,103.105095 
	C172.806229,118.789520 184.195160,126.668770 197.783356,121.932144 
	C207.641830,118.495644 212.803345,108.970413 210.873764,96.825600 
	C209.735458,89.661133 205.889801,84.054749 198.795120,81.538971 
	C191.532684,78.963707 184.592911,79.407570 178.082504,84.283401 
	C171.911697,88.904869 170.908463,95.455772 170.570084,103.105095 
M231.587067,93.092720 
	C235.071381,92.000618 238.555710,90.908524 243.007492,89.513184 
	C242.639359,87.047165 242.151184,83.777122 241.663025,80.507088 
	C237.421494,81.439117 233.179947,82.371147 228.921204,83.306953 
	C228.336395,80.404694 225.217224,79.635887 217.799805,81.671059 
	C217.799805,95.036316 217.799805,108.386467 217.799805,121.621719 
	C221.784653,121.621719 225.346771,121.621719 229.129883,121.621719 
	C229.129883,115.760513 228.895233,110.269905 229.211319,104.811188 
	C229.426788,101.090286 230.412125,97.413963 231.587067,93.092720 
z"/>
<path fill="#CBDA9B" opacity="1.000000" stroke="none" 
	d="
M301.980011,108.009720 
	C301.979980,112.795296 301.979980,117.085976 301.979980,121.683105 
	C297.856476,121.683105 294.284546,121.683105 289.995026,121.683105 
	C289.995026,114.954872 289.995026,108.352058 289.995026,101.749237 
	C289.995026,96.583336 289.929932,91.416260 290.022247,86.252014 
	C290.069061,83.633171 288.913483,80.122475 293.626526,80.226364 
	C297.248322,80.306206 301.840027,78.829552 301.286438,85.378067 
	C311.234100,78.004646 316.173920,78.110481 324.164276,85.767807 
	C328.815826,81.312752 333.947845,78.709053 340.756409,80.739616 
	C347.461731,82.739395 349.209106,88.080811 349.675720,93.783821 
	C350.258118,100.902901 349.863678,108.102020 349.887634,115.266594 
	C349.894196,117.238480 349.888641,119.210403 349.888641,121.592102 
	C345.598389,121.592102 341.732605,121.592102 337.147797,121.592102 
	C337.147797,113.179588 337.378784,104.889481 336.982269,96.629486 
	C336.885437,94.612373 335.121704,92.120972 333.382721,90.935989 
	C332.263000,90.172981 329.077271,90.767235 328.096252,91.880264 
	C326.733521,93.426315 326.053833,96.012924 325.985748,98.182426 
	C325.746094,105.821037 325.892609,113.471748 325.892609,121.558731 
	C321.974243,121.558731 318.417511,121.558731 313.995026,121.558731 
	C313.995026,114.794533 313.996948,107.874939 313.994476,100.955353 
	C313.992004,94.122925 312.012726,90.458023 308.235077,90.279396 
	C304.342346,90.095322 301.987793,94.136024 301.980652,101.015854 
	C301.978394,103.182175 301.980103,105.348495 301.980011,108.009720 
z"/>
<path fill="#AA90B5" opacity="1.000000" stroke="none" 
	d="
M137.007690,122.005112 
	C132.543671,122.005119 128.577438,122.005119 124.241013,122.005119 
	C124.241013,103.697258 124.241013,85.810104 124.241013,67.116486 
	C134.520340,67.577461 144.917999,65.506241 155.132919,68.800735 
	C160.002441,70.371239 162.890686,73.924133 163.803650,78.859154 
	C164.931412,84.955177 162.494370,89.567596 158.150467,92.025848 
	C160.818954,96.301880 164.752823,100.134354 165.672653,104.589149 
	C167.644958,114.141258 160.797150,121.362083 150.486450,121.935020 
	C146.171494,122.174789 141.833176,121.994446 137.007690,122.005112 
M150.148315,110.896080 
	C154.699921,106.871246 154.156555,100.754677 148.766846,99.275208 
	C144.791046,98.183868 140.479233,98.316711 136.258575,97.898300 
	C136.258575,103.175079 136.258575,107.391449 136.258575,112.329216 
	C140.907257,111.929604 145.135223,111.566154 150.148315,110.896080 
M135.886169,79.721664 
	C135.886169,82.974335 135.886169,86.227005 135.886169,90.384674 
	C140.330109,89.833916 144.130402,89.802162 147.656708,88.803185 
	C151.230759,87.790680 152.540497,83.807999 150.956909,80.770912 
	C148.748367,76.535301 139.791946,75.352737 135.886169,79.721664 
z"/>
<path fill="#94C1DD" opacity="1.000000" stroke="none" 
	d="
M378.455139,96.452148 
	C379.176331,93.996399 379.714691,91.906754 380.301544,89.830826 
	C383.063782,80.059395 383.843170,79.603287 395.379425,81.565094 
	C394.190948,85.352554 393.132507,89.083801 391.852539,92.737427 
	C388.009674,103.706627 383.827576,114.564201 380.268799,125.623314 
	C377.662781,133.721680 369.149353,140.025848 358.255920,136.385284 
	C358.255920,133.877014 358.255920,131.281799 358.255920,128.349091 
	C359.321136,128.207443 360.255432,128.021957 361.197235,127.967949 
	C367.120178,127.628258 368.960876,125.108208 367.086639,119.589508 
	C363.295868,108.427628 359.409851,97.298096 355.581635,86.148872 
	C355.055573,84.616798 354.635071,83.048485 354.187164,81.567856 
	C354.673920,81.316010 354.815033,81.189735 354.969360,81.170753 
	C366.019135,79.811630 366.032288,79.808472 369.158112,90.386505 
	C370.894897,96.263786 372.579620,102.156441 374.702942,109.472473 
	C376.127563,104.455635 377.211090,100.640106 378.455139,96.452148 
z"/>
<path fill="#F5BC47" opacity="1.000000" stroke="none" 
	d="
M260.396912,90.261826 
	C256.902954,95.812828 251.922592,93.191154 247.091858,93.637161 
	C246.747681,87.904572 249.804672,84.539101 254.073059,82.430893 
	C261.040100,78.989822 268.537781,78.834862 275.176727,82.699440 
	C278.198029,84.458160 281.384247,88.583588 281.674988,91.884003 
	C282.532532,101.617638 281.981201,111.475380 281.981201,121.226128 
	C274.379669,123.079216 271.671875,122.449677 270.818817,119.707390 
	C266.542023,120.796806 262.379089,122.611160 258.154755,122.767769 
	C250.627884,123.046814 245.661652,118.125435 245.152618,111.102036 
	C244.668976,104.428825 248.942444,99.389183 256.278015,98.077759 
	C258.564758,97.668930 260.874329,97.320984 263.188568,97.152115 
	C265.319733,96.996613 267.471191,97.119041 269.526825,97.119041 
	C270.626495,90.152031 267.609467,87.931190 260.396912,90.261826 
M257.357605,108.091095 
	C257.987885,109.934425 258.271820,113.077126 259.319092,113.356293 
	C261.651306,113.977997 264.913879,113.978592 266.773621,112.719864 
	C268.744659,111.385818 269.530365,108.300484 270.833771,105.980019 
	C270.305481,105.338623 269.777191,104.697227 269.248901,104.055832 
	C265.457245,105.191032 261.665558,106.326233 257.357605,108.091095 
z"/>
<path fill="#F6C6C4" opacity="1.000000" stroke="none" 
	d="
M170.435165,102.712143 
	C170.908463,95.455772 171.911697,88.904869 178.082504,84.283401 
	C184.592911,79.407570 191.532684,78.963707 198.795120,81.538971 
	C205.889801,84.054749 209.735458,89.661133 210.873764,96.825600 
	C212.803345,108.970413 207.641830,118.495644 197.783356,121.932144 
	C184.195160,126.668770 172.806229,118.789520 170.435165,102.712143 
M182.999390,104.107613 
	C183.113449,104.923729 183.059082,105.811478 183.370422,106.543716 
	C184.806137,109.920326 186.050613,113.316185 190.903839,113.114601 
	C195.744217,112.913536 197.903397,109.974854 198.345001,105.957214 
	C198.747635,102.294449 198.752563,98.224167 197.494385,94.873634 
	C196.687958,92.726067 193.369705,90.488358 190.998428,90.274323 
	C188.937836,90.088326 185.728470,92.198250 184.648743,94.178101 
	C183.252670,96.737984 183.468475,100.176926 182.999390,104.107613 
z"/>
<path fill="#DF5C57" opacity="1.000000" stroke="none" 
	d="
M231.320160,93.405212 
	C230.412125,97.413963 229.426788,101.090286 229.211319,104.811188 
	C228.895233,110.269905 229.129883,115.760513 229.129883,121.621719 
	C225.346771,121.621719 221.784653,121.621719 217.799805,121.621719 
	C217.799805,108.386467 217.799805,95.036316 217.799805,81.671059 
	C225.217224,79.635887 228.336395,80.404694 228.921204,83.306953 
	C233.179947,82.371147 237.421494,81.439117 241.663025,80.507088 
	C242.151184,83.777122 242.639359,87.047165 243.007492,89.513184 
	C238.555710,90.908524 235.071381,92.000618 231.320160,93.405212 
z"/>
<path fill="#FDFCFD" opacity="1.000000" stroke="none" 
	d="
M149.755737,111.049393 
	C145.135223,111.566154 140.907257,111.929604 136.258575,112.329216 
	C136.258575,107.391449 136.258575,103.175079 136.258575,97.898300 
	C140.479233,98.316711 144.791046,98.183868 148.766846,99.275208 
	C154.156555,100.754677 154.699921,106.871246 149.755737,111.049393 
z"/>
<path fill="#FDFCFD" opacity="1.000000" stroke="none" 
	d="
M135.908752,79.254333 
	C139.791946,75.352737 148.748367,76.535301 150.956909,80.770912 
	C152.540497,83.807999 151.230759,87.790680 147.656708,88.803185 
	C144.130402,89.802162 140.330109,89.833916 135.886169,90.384674 
	C135.886169,86.227005 135.886169,82.974335 135.908752,79.254333 
z"/>
<path fill="#FFFEFC" opacity="1.000000" stroke="none" 
	d="
M257.615723,107.776260 
	C261.665558,106.326233 265.457245,105.191032 269.248901,104.055832 
	C269.777191,104.697227 270.305481,105.338623 270.833771,105.980019 
	C269.530365,108.300484 268.744659,111.385818 266.773621,112.719864 
	C264.913879,113.978592 261.651306,113.977997 259.319092,113.356293 
	C258.271820,113.077126 257.987885,109.934425 257.615723,107.776260 
z"/>
<path fill="#FFFEFE" opacity="1.000000" stroke="none" 
	d="
M182.994812,103.672485 
	C183.468475,100.176926 183.252670,96.737984 184.648743,94.178101 
	C185.728470,92.198250 188.937836,90.088326 190.998428,90.274323 
	C193.369705,90.488358 196.687958,92.726067 197.494385,94.873634 
	C198.752563,98.224167 198.747635,102.294449 198.345001,105.957214 
	C197.903397,109.974854 195.744217,112.913536 190.903839,113.114601 
	C186.050613,113.316185 184.806137,109.920326 183.370422,106.543716 
	C183.059082,105.811478 183.113449,104.923729 182.994812,103.672485 
z"/>
</svg>